<?xml version="1.0" encoding="iso-8859-1" ?>
              <svg
                version="1.1"
                xmlns="http://www.w3.org/2000/svg"
                xmlns:xlink="http://www.w3.org/1999/xlink"
                viewBox="0 0 1221 814"
                width="1221"
                height="814"
              >
                <g transform="translate(1182.7499999999998 177.29745411389953) scale(-1.2848064772154473 1.2868654619545747)" ><defs>
    <clipPath id="clipPath_BAqRNTASDh8MaGNPZCwP4">
    <rect x="0" y="0" width="300" height="96" />
    </clipPath></defs> <rect x="49.197" y="79.83" fill="#D62929" width="51.551" height="12.241"/> <rect x="46.023" y="71.549" fill="#428DFC" width="51.551" height="8.419"/> <rect x="52.739" y="82.397" fill="#D6D7D8" width="48.403" height="7.108"/> <rect x="52.739" y="87.773" fill="#EEEEEE" width="48.403" height="0.896"/> <rect x="52.739" y="85.98" fill="#EEEEEE" width="48.403" height="0.896"/> <rect x="52.739" y="84.189" fill="#EEEEEE" width="48.403" height="0.896"/> <rect x="52.739" y="82.397" fill="#EEEEEE" width="48.403" height="0.896"/> <rect x="46.34" y="59.125" fill="#D62929" width="60.815" height="12.241"/> <rect x="50.518" y="61.691" fill="#D6D7D8" width="57.101" height="7.108"/> <rect x="50.518" y="67.067" fill="#EEEEEE" width="57.101" height="0.896"/> <rect x="50.518" y="65.275" fill="#EEEEEE" width="57.101" height="0.896"/> <rect x="50.518" y="63.483" fill="#EEEEEE" width="57.101" height="0.896"/> <rect x="50.518" y="61.691" fill="#EEEEEE" width="57.101" height="0.896"/> <rect y="92.178" fill="#D6D7D8" width="300" height="3.822"/> <rect x="8.333" y="21.351" fill="#E94A47" width="15.238" height="70.72"/> <polygon fill="#1D72D8" points="128.774,89.049 119.701,92.404 100.502,40.13 109.576,36.775 "/> <polygon fill="#428DFC" points="139.011,89.049 129.938,92.405 110.739,40.131 119.812,36.775 "/> <polygon fill="#78A9EF" points="155.489,87.941 146.899,92.397 121.406,42.91 129.995,38.454 "/> <g>     <linearGradient id="SVGID_1_BAqRNTASDh8MaGNPZCwP4" gradientUnits="userSpaceOnUse" x1="2545.6848" y1="1822.3507" x2="2882.7576" y2="1822.3507" gradientTransform="matrix(0.1667 0 0 0.1667 -207.4917 -226.2627)">   <stop offset="0" stop-color="#EEEEEE"/>   <stop offset="1" stop-color="#D6D7D8"/>  </linearGradient>  <ellipse fill="url(#SVGID_1_BAqRNTASDh8MaGNPZCwP4)" cx="244.969" cy="77.523" rx="28.095" ry="14.336"/>  <ellipse fill="#D6D7D8" cx="244.969" cy="66.294" rx="13.651" ry="3.106"/>     <linearGradient id="SVGID_2_BAqRNTASDh8MaGNPZCwP4" gradientUnits="userSpaceOnUse" x1="2539.0757" y1="1565.4664" x2="2829.7266" y2="1565.4664" gradientTransform="matrix(0.1667 0 0 0.1667 -207.4917 -226.2627)">   <stop offset="0" stop-color="#B9D3FD"/>   <stop offset="1" stop-color="#89B3F4"/>  </linearGradient>  <path fill="url(#SVGID_2_BAqRNTASDh8MaGNPZCwP4)" d="M261.073,43.216c-2.826-1.34-6.353,0.156-9.224-1.084c-1.015-0.439-1.952-1.369-1.894-2.476   c0.149-2.83,5.707-2.628,5.848-5.459c0.161-3.236-8.335-2.296-7.262-5.351c0.457-1.301,2.26-1.669,2.898-2.891   c0.638-1.222,0.592-2.922-0.478-3.788c-1.416-1.146-3.536-0.245-5.313-0.635c-2.023-0.445-3.295-2.529-3.705-4.566   c-0.41-2.037-0.198-4.151-0.495-6.207c-0.732-5.061-4.839-9.453-9.826-10.508c-4.987-1.055-10.511,1.3-13.217,5.633   c-1.11,1.778-1.725,4.188-0.533,5.91c1.008,1.458,3.209,2.379,3.032,4.145c-0.242,2.41-4.657,2.622-4.737,5.043   c-0.094,2.825,5.703,2.83,5.538,5.653c-0.074,1.259-1.393,1.998-2.194,2.97c-1.503,1.825-0.907,4.969,1.159,6.114   c0.82,0.455,1.812,0.632,2.485,1.287c1.673,1.63,0.037,4.512-1.939,5.755c-1.975,1.243-4.509,2.164-5.247,4.384   c-0.526,1.581,0.085,3.312,0.861,4.787c2.146,4.077,5.648,7.42,9.812,9.368c2.328,1.089,4.833,1.747,7.207,2.735   c0.208,0.086,0.41,0.184,0.616,0.276c2.776,1.24,5.339,2.945,7.569,5.016c0.946,0.047,1.927,0.072,2.935,0.072   c2.571,0,4.976-0.162,7.029-0.444c0.612-0.961,1.279-1.886,1.977-2.759c0.505-0.633,1.029-1.254,1.559-1.87   c2.703-3.142,5.606-6.15,7.44-9.852C264.859,50.67,264.901,45.032,261.073,43.216z"/>     <linearGradient id="SVGID_3_BAqRNTASDh8MaGNPZCwP4" gradientUnits="userSpaceOnUse" x1="2431.5767" y1="1637.9448" x2="2728.6365" y2="1637.9448" gradientTransform="matrix(0.1667 0 0 0.1667 -207.4917 -226.2627)">   <stop offset="0" stop-color="#DEEAFE"/>   <stop offset="1" stop-color="#E9F1FE"/>  </linearGradient>  <path fill="url(#SVGID_3_BAqRNTASDh8MaGNPZCwP4)" d="M245.175,63.19c-3.083-6.634-8.192-12.336-14.607-15.837c-1.189-0.649-2.444-1.248-3.359-2.249   c-1.943-2.125-1.812-5.347-1.965-8.228c-0.153-2.88-1.166-6.278-3.935-7.054c-2.311-0.648-5.243,0.773-6.955-0.914   c-0.636-0.626-0.894-1.533-1.35-2.301c-1.963-3.301-7.188-3.046-10.042-0.481c-2.854,2.566-3.944,6.515-4.901,10.237   c-0.349,1.357-0.397,3.28,0.952,3.643c1.282,0.345,2.57-1.246,3.803-0.751c0.988,0.397,1.051,1.8,0.697,2.808   c-0.354,1.007-0.962,2.025-0.73,3.068c0.442,1.99,3.235,2.101,5.194,1.561c1.959-0.54,4.515-1.058,5.636,0.642   c-1.24,4.015-2.316,8.887,0.485,12.014c3.24,3.615,9.174,3.239,13.998,3.694c2.046,0.193,3.952,0.7,5.739,1.456   c2.639,1.116,5.014,2.772,7.175,4.769c1.253,0.086,2.581,0.133,3.957,0.133c0.821,0,1.624-0.018,2.405-0.049   C246.835,67.237,246.096,65.172,245.175,63.19z"/>  <path fill="#428DFC" d="M248.761,54.952c0.012-0.264-0.191-0.488-0.454-0.5c-0.242-0.007-0.486,0.191-0.498,0.455   c-0.131,2.775-0.191,5.557-0.192,8.341c-0.001,2.031,0.033,4.062,0.1,6.09c0.322-0.015,0.638-0.033,0.951-0.054   c-0.066-1.993-0.099-3.989-0.099-5.986C248.572,60.514,248.631,57.729,248.761,54.952z"/>     <ellipse transform="matrix(0.9991 0.043 -0.043 0.9991 2.559 -10.645)" fill="#23286B" cx="248.45" cy="54.096" rx="4.296" ry="1.612"/>  <path fill="none" stroke="#428DFC" stroke-width="2" stroke-linecap="round" stroke-miterlimit="10" d="M248.337,53.906   c0.253-4.779,0.697-9.547,1.33-14.289"/>     <ellipse transform="matrix(0.9985 -0.0548 0.0548 0.9985 -1.7362 13.7458)" fill="#23286B" cx="249.829" cy="38.538" rx="5.176" ry="1.942"/>  <path fill="none" stroke="#428DFC" stroke-width="2" stroke-linecap="round" stroke-miterlimit="10" d="M249.838,38.368   c0.551-3.917,1.231-7.813,2.039-11.683"/>  <path fill="#23286B" d="M257.482,26.835c-0.272,1.037-2.734,1.285-5.498,0.554c-2.764-0.731-4.784-2.165-4.512-3.202   c0.272-1.037,2.734-1.285,5.498-0.554C255.734,24.365,257.754,25.798,257.482,26.835z"/>  <path fill="none" stroke="#428DFC" stroke-width="2" stroke-linecap="round" stroke-miterlimit="10" d="M252.219,25.084   c0.642-2.938,1.358-5.861,2.147-8.762"/>  <path fill="#23286B" d="M261.52,16.589c-0.365,1.391-3.666,1.723-7.372,0.743c-3.706-0.98-6.415-2.902-6.05-4.293   c0.365-1.391,3.666-1.723,7.372-0.743C259.177,13.276,261.885,15.198,261.52,16.589z"/>  <path fill="none" stroke="#428DFC" stroke-width="2" stroke-linecap="round" stroke-miterlimit="10" d="M254.914,14.356   c0.548-1.929,1.13-3.846,1.744-5.756"/> </g> <ellipse fill="#FFFFFF" cx="15.953" cy="73.064" rx="4.286" ry="4.301"/> <rect x="25.952" y="21.351" fill="#E94A47" width="15.238" height="70.72"/> <ellipse fill="#FFFFFF" cx="33.572" cy="73.064" rx="4.286" ry="4.301"/> </g><g transform="translate(841.3316831683169 100.5) scale(-1.292237108953981 1.2876161069069372)" ><defs>
    <clipPath id="clipPath_p8JtbwP_G1AHDay_W9lFT">
    <rect x="0" y="0" width="174.63" height="316.088" />
    </clipPath></defs> <path fill="#FFBEB6" d="M98.557,187.081c-4.977,2.673-8.646,1.174-13.779,1.957c-6.838,1.044-4.677,5.142-4.369,10.831  c0.509,9.395-1.046,18.968,0.215,27.903c4.079-2.482,6.017-5.983,7.58-10.317c1.819-5.044,2.739-6.101,7.38-8.841  c4.051-2.391,7.661-4.985,11.858-7.096c3.852-1.938,9.529-3.209,12.465-6.242c-2.212-4.441-2.37-9.069-3.245-13.716  C110.759,182.481,103.968,187.32,98.557,187.081z"/> <path fill="#428DFC" d="M87.64,188.542c-5.439-0.793-16.314-1.834-16.785,0.122c0.057,7.286-0.353,18.666-0.315,26.765  c0.041,8.874,0.005,18.492,0.475,26.904c0.294,5.253,15.821-7.676,16.282-27.517c0.093-4.02,0.294-6.321,0.226-11.053  C87.451,198.802,87.285,190.355,87.64,188.542z"/> <path fill="#F2A19C" d="M103.75,106.958c-1.67,1.337-7.38,5.519-8.081,5.006c-1.928-1.789-0.481-2.799,1.005-4.024  c-1.092,0.241-3.976,0.729-3.636-1.176c0.156-0.871,3.434-2.892,4.018-3.551c1.881-2.123,1.978-2.86,4.199-0.743  C102.328,103.493,103.907,105.891,103.75,106.958z"/> <linearGradient id="SVGID_1_p8JtbwP_G1AHDay_W9lFT" gradientUnits="userSpaceOnUse" x1="92.2597" y1="91.3199" x2="100.3207" y2="88.3563">  <stop offset="0" stop-color="#FFBEB6"/>  <stop offset="1" stop-color="#F8AFA9"/> </linearGradient> <path fill="url(#SVGID_1_p8JtbwP_G1AHDay_W9lFT)" d="M54,80.958c4.043,1.987,7.745,4.29,12.263,5.769c5.393,1.764,10.981,2.932,16.424,4.538  c5.431,1.603,12.637,2.255,17.563,5.013c2.399,1.343,2.444,3.838,3.575,6.456c1.039,2.405,2.493,4.682,3.668,6.976  c0.714,1.395,2.79,3.94,2.706,5.499c-0.222,4.112-3.038-0.407-3.894-1.75c-1.223-1.921-2.549-3.722-3.617-5.75  c-0.963-1.828-1.91-5.074-3.689-6.206c-1.247-0.793-4.768-1.874-6.249-1.982c-2.273-0.165-17.669,3.345-19.75,2.188  c-2.111-1.174-8.542-0.799-11-0.75c-3.728,0.074-10.973-2.175-12.512-3.743c-0.885-0.901-1.598-2.268-2.488-3.251  c-2.011-2.221-3.1-4.678-3.812-7.575c-0.631-2.564-1.685-5.379-0.195-7.431c1.285-1.769,4.608-3.436,6.707-3.719  C50.484,76.786,52.64,80.289,54,80.958z"/> <polygon fill="#A1C3FC" points="143.417,139.684 106.989,139.684 129.833,93.38 166.261,93.38 "/> <polygon fill="#428DFC" points="141.781,136.053 113.25,133.208 130.849,97.011 161.042,97.011 "/> <path fill="#FFBEB6" d="M118.317,286.118c2.653,4.988,1.137,8.65,1.9,13.787c1.015,6.842,5.122,4.698,10.813,4.414  c9.397-0.47,18.964,1.125,27.904-0.098c-2.465-4.09-5.957-6.042-10.285-7.623c-5.037-1.84-6.09-2.765-8.81-7.417  c-2.375-4.061-4.953-7.682-7.047-11.887c-1.922-3.86-3.169-9.542-6.19-12.491c-4.45,2.193-9.079,2.332-13.729,3.188  C113.768,273.897,118.578,280.709,118.317,286.118z"/> <path fill="#151A4F" d="M64.236,115.349c-1.431,3.926-0.775,5.473-0.236,9.526c0.826,6.212,2.294,6.343,8.667,7.333  c13.378,2.079,28.633,5.478,42,8c10.448,1.971,27.123,5.599,31.725,17.053c4.152,10.336-7.002,22.917-14.174,29.366  c-9.572,8.608-20.568,15.268-29.807,24.25c-5.926,5.762-14.593,15.392-17.536,23.024c0.958-5.714-1.685-14.344-2.563-20.267  c-1.08-7.281-1.82-13.262,1.687-20.177c1.411-2.783,5.967-7.055,8.349-9.049c3.693-3.092-0.619-8.043,2.901-9.451  c11.25-4.5,7.585-3.404,13.063-7.052c-2.429,5.92-21.766,1.002-26.98-0.046c-9.187-1.847-18.46-2.076-27.574-3.997  c-4.886-1.03-10.456-1.575-13.677-6.051c-2.933-4.076-7.278-10.202-8.38-14.888c-2.82-11.986-1.471-23.197-1.022-35.267  c9.313,5.776,23.26,4.088,33.974,6.945C63.724,113.716,65.427,115.879,64.236,115.349z"/> <linearGradient id="SVGID_2_p8JtbwP_G1AHDay_W9lFT" gradientUnits="userSpaceOnUse" x1="68.2886" y1="170.8662" x2="106.3219" y2="257.9569">  <stop offset="0" stop-color="#23286B"/>  <stop offset="1" stop-color="#151A4F"/> </linearGradient> <path fill="url(#SVGID_2_p8JtbwP_G1AHDay_W9lFT)" d="M23.427,101.562c-2.974,7.831-1.17,21.655,0.521,30.344c2.222,11.414,7.76,18.288,14.935,26.995  c12.435,15.09,35.628,32.821,37.913,53.508c1.113,10.074,1.816,18.758,7.431,27.878c5.339,8.673,13.839,11.717,14.606,22.587  c0.766,10.857,3,24.333,12.563,29.728c0,0,20.926,0.815,30.529-0.272c-4.892-9.059-9.79-20.896-13.595-28.511  c-4.699-9.405-8.795-18.995-12.102-28.828c-6.78-20.159-8.405-45.251-19.994-63.514c-4.52-7.124-10.692-13.241-16.557-19.183  c-2.999-3.038-5.878-5.955-8.231-9.33c-2.638-3.784-3.424-5.638-5.114-10.09c-3.634-9.576-6.071-21.519-3.27-31.217  c-13.216,0.033-26.513,0.405-39.511-0.605C24.039,100.107,22.894,102.483,23.427,101.562z"/> <linearGradient id="SVGID_3_p8JtbwP_G1AHDay_W9lFT" gradientUnits="userSpaceOnUse" x1="42.9873" y1="42.9808" x2="39.6159" y2="122.881">  <stop offset="0" stop-color="#A1C3FC"/>  <stop offset="1" stop-color="#89B3F4"/> </linearGradient> <path fill="url(#SVGID_3_p8JtbwP_G1AHDay_W9lFT)" d="M40.519,29.316c-8.833,6.563-10.223,13.393-13.368,23.699c-5.719,18.737-10.327,41.52-22.25,57.366  c12.52,14.037,37,14.706,53.821,12.136C64.807,121.588,75,119.541,75,119.541s-8.239-16.033-9.081-21.258  c-1.748-10.857-1.754-20.128-0.551-30.885c1.035-9.265,2.097-18.402,3.709-27.174c1.481-8.056-1.245-14.937-11.827-16.017  C51.789,23.651,45.624,25.523,40.519,29.316z"/> <path fill="#F2A19C" d="M71.406,15.531c-3.741,4.245-9.156,7.427-13.594,9.498C59.471,29.51,65.058,33.72,70,35.208  c3.134-4.433,6.631-3.379,10.063-7.543c-3.839-3.126-6.165-6.649-7.79-11.444C72.21,17.86,70.818,13.953,71.406,15.531z"/> <linearGradient id="SVGID_4_p8JtbwP_G1AHDay_W9lFT" gradientUnits="userSpaceOnUse" x1="118.6844" y1="305.6489" x2="174.6305" y2="305.6489">  <stop offset="0" stop-color="#428DFC"/>  <stop offset="1" stop-color="#1D72D8"/> </linearGradient> <path fill="url(#SVGID_4_p8JtbwP_G1AHDay_W9lFT)" d="M119.731,297.041c-0.815,5.435-1.902,16.306,0.051,16.785c7.286-0.026,18.664,0.431,26.763,0.427  c8.874-0.004,18.492,0.073,26.905-0.362c5.254-0.272-7.61-15.853-27.449-16.397c-4.019-0.11-6.32-0.32-11.052-0.272  C129.99,297.273,121.543,297.404,119.731,297.041z"/> <path fill="#8CB6F1" d="M141.887,143.691l-44.722,1.896v-6.533h46.637v2.64C143.802,142.764,142.958,143.646,141.887,143.691z"/> <path fill="#78A9EF" d="M102.413,146.383l-23.455-5.508c-0.904-0.212-1.543-1.019-1.543-1.947v-3.375l24.998,4.296V146.383z"/> <linearGradient id="SVGID_5_p8JtbwP_G1AHDay_W9lFT" gradientUnits="userSpaceOnUse" x1="87.5885" y1="22.5805" x2="97.8085" y2="15.5947">  <stop offset="0" stop-color="#FFBEB6"/>  <stop offset="1" stop-color="#F8AFA9"/> </linearGradient> <path fill="url(#SVGID_5_p8JtbwP_G1AHDay_W9lFT)" d="M79.758,9.736c4.968-6.762,12.227-8.273,20.663-3.998c6.625,3.358,6.94,15.184,1.769,22.94  c-2.717,4.075-9.372,14.542-22.298,10.988c-10.339-2.843-4.451-19.782-3.064-25.169C76.676,15.181,79.075,9.207,79.758,9.736z"/> <path fill="#E94A47" d="M98.015,12.96c4.019-0.336,2.559,21.858,2.559,21.858l10.591-0.297c0,0,2.344-21.378-8.936-25.578  C100.395,10.462,99.484,11.047,98.015,12.96z"/> <g>  <path fill="#E94A47" d="M113.502,34.349c-0.017,0-0.033-0.001-0.05-0.002c-0.274-0.027-0.476-0.271-0.449-0.546   c0.735-7.545-4.023-20.417-10.085-23.751c-0.241-0.133-0.33-0.437-0.197-0.679c0.135-0.243,0.438-0.329,0.68-0.197   c6.532,3.593,11.368,16.818,10.599,24.724C113.974,34.155,113.756,34.349,113.502,34.349z"/> </g> <path fill="#FFBEB6" d="M86.75,98.458c0.701,0.129,1.651,2.767,2.556,3.75c1.317,1.429,2.89,2.041,4.694,2.493  c2.326,0.582,8.107,1.413,10.249,0.026c4.323-2.8-4.951-4.053-6.499-4.27c-2.595-0.363-8.498-4.098-10.329-2.141  C87.614,98.196,86.557,98.577,86.75,98.458z"/> <polygon fill="#C3D9FD" points="109.298,134.938 77.267,135.558 99.25,139.458 143.802,139.053 "/> <g>  <linearGradient id="SVGID_6_p8JtbwP_G1AHDay_W9lFT" gradientUnits="userSpaceOnUse" x1="102.0997" y1="139.7754" x2="79.1022" y2="107.2944">   <stop offset="0" stop-color="#FFBEB6"/>   <stop offset="1" stop-color="#F8AFA9"/>  </linearGradient>  <path fill="url(#SVGID_6_p8JtbwP_G1AHDay_W9lFT)" d="M110.62,134.989c-2.811-0.849-4.835-3.334-8.049-4.555c-5.889-2.237-9.666-11.303-13.019-16.447   c-3.76-5.769-7.371-10.027-12-14.865c-3.768-3.938-8.045-10.436-12.85-13.028c0.035,0.268,0.069,0.613,0.109,0.856   c-4.185,0.693-6.606-2.844-8.113,2.589c-0.815,2.939,1.45,9.711,2.551,12.312c2.779,6.562,8.108,12.522,12.984,17.556   c5.185,5.352,12.706,7.538,17.564,12.533c4.292,4.413,1.594,10.944,5.84,15.447c1.076,0.676,3.088-0.576,4.394-0.086   c1.086,0.407,4.861-0.188,7.739-1.624c2.841,1.004,1.312,2.38,4.666,0.24c1.154-0.865-2.089-4.577-5.824-8.331   c-0.181-0.262-0.38-0.548-0.612-0.876c2.976,3.061,7.5,2.75,11.75,2C118.736,137.804,116.04,136.626,110.62,134.989z"/>  <linearGradient id="SVGID_7_p8JtbwP_G1AHDay_W9lFT" gradientUnits="userSpaceOnUse" x1="102.534" y1="139.468" x2="79.5365" y2="106.987">   <stop offset="0" stop-color="#FFBEB6"/>   <stop offset="1" stop-color="#F8AFA9"/>  </linearGradient>  <path fill="url(#SVGID_7_p8JtbwP_G1AHDay_W9lFT)" d="M64.524,85.992c0.06,0.031,0.118,0.069,0.177,0.101C64.652,85.714,64.6,85.5,64.524,85.992z"/> </g> <path fill="#A1C3FC" d="M62.333,35.874c6.333-0.333,8.525,2.831,10.333,11.667c1.465,7.157,1.332,10.238,0.973,17.651  c-0.642,13.273,4.218,26.345,12.983,37.056c-4.781,6.084-25.009,7.698-32.29,7.959c-1.266-24.31,6.291-28.732-1-46  C47,49.208,50.957,36.473,62.333,35.874z"/> <path fill="#E94A47" d="M105.099,10.258C100.251-4.285,77.619-1.253,71.166,6.38c-7.755,9.173-6.723,30.285-6.14,41.688  c3.037,0.729,23.591,0.323,23.591,0.323s-2.541-16.817,1.153-23.065c1.221-2.066,11.446-0.013,13.459-2.183  C106.592,19.519,104.182,10.487,105.099,10.258z"/> <g>  <path fill="#23286B" d="M98.083,37.456c-0.063,0-0.127-0.012-0.188-0.037c-2.546-1.036-2.869-1.677-3.595-3.741   c-0.092-0.261,0.045-0.546,0.306-0.638c0.264-0.093,0.547,0.046,0.638,0.306c0.65,1.85,0.786,2.234,3.028,3.147   c0.256,0.104,0.379,0.396,0.274,0.651C98.467,37.338,98.28,37.456,98.083,37.456z"/> </g> <path id="texture-2_14_p8JtbwP_G1AHDay_W9lFT" fill="#FFFFFF" d="M33.843,147.485c-0.001-0.085-0.072-0.153-0.157-0.152  c-0.085,0.001-0.153,0.072-0.152,0.157c0.001,0.085,0.072,0.153,0.157,0.152l0,0C33.776,147.641,33.845,147.572,33.843,147.485  L33.843,147.485z M27.316,133.037c0.061-0.062,0.06-0.163-0.003-0.224l0,0c-0.055-0.058-0.147-0.059-0.204-0.004  c-0.005,0.004-0.01,0.01-0.014,0.015c-0.06,0.059-0.061,0.154-0.003,0.215C27.155,133.099,27.256,133.099,27.316,133.037  L27.316,133.037L27.316,133.037z M30.151,140.566c0.076-0.041,0.111-0.133,0.08-0.213c-0.037-0.081-0.132-0.117-0.213-0.08  c-0.081,0.037-0.117,0.132-0.08,0.213C29.98,140.563,30.07,140.597,30.151,140.566z M50.729,138.909  c0.153-0.059,0.23-0.23,0.173-0.384c-0.049-0.15-0.21-0.232-0.36-0.184c-0.005,0.002-0.01,0.003-0.015,0.005  c-0.153,0.059-0.23,0.23-0.173,0.384C50.408,138.882,50.576,138.963,50.729,138.909L50.729,138.909z M43.998,141.38  c0.154-0.061,0.229-0.233,0.167-0.386c-0.059-0.151-0.227-0.227-0.379-0.171c-0.153,0.054-0.233,0.221-0.179,0.374l0,0  C43.672,141.351,43.841,141.43,43.998,141.38z M37.253,143.849c0.152-0.055,0.231-0.221,0.176-0.373  c-0.001-0.003-0.003-0.006-0.004-0.009c-0.049-0.15-0.21-0.232-0.36-0.184c-0.005,0.002-0.01,0.003-0.015,0.005  c-0.153,0.062-0.232,0.232-0.183,0.39C36.929,143.828,37.099,143.905,37.253,143.849z M49.908,154.225  c0.002-0.163-0.129-0.296-0.292-0.297c-0.163-0.002-0.296,0.129-0.297,0.292c-0.001,0.159,0.125,0.291,0.284,0.297  C49.767,154.518,49.902,154.389,49.908,154.225L49.908,154.225z M42.737,153.93c0.001-0.162-0.129-0.296-0.292-0.297  c-0.163-0.002-0.296,0.129-0.297,0.292c-0.001,0.159,0.125,0.291,0.284,0.297C42.594,154.223,42.73,154.094,42.737,153.93  L42.737,153.93z M40.576,128.569c0.118-0.114,0.124-0.3,0.011-0.421c-0.107-0.119-0.291-0.127-0.409-0.02  c0,0-0.002,0.001-0.002,0.002c-0.122,0.099-0.14,0.279-0.042,0.4c0.005,0.006,0.01,0.011,0.015,0.018  C40.265,128.664,40.45,128.674,40.576,128.569z M35.291,133.431c0.117-0.115,0.126-0.301,0.021-0.426  c-0.114-0.118-0.301-0.124-0.421-0.012c-0.12,0.11-0.127,0.297-0.016,0.417c0.001,0.001,0.003,0.003,0.003,0.003  c0.108,0.12,0.291,0.128,0.409,0.022C35.289,133.432,35.29,133.431,35.291,133.431z M30.014,138.285  c0.118-0.103,0.131-0.283,0.027-0.4c-0.003-0.003-0.006-0.007-0.01-0.01c-0.106-0.123-0.292-0.137-0.415-0.031  c-0.004,0.003-0.008,0.007-0.011,0.01c-0.12,0.112-0.127,0.301-0.015,0.421c0.112,0.12,0.302,0.126,0.42,0.015  C30.012,138.287,30.013,138.286,30.014,138.285z M49.433,161.248c0.02-0.144-0.081-0.277-0.224-0.298  c-0.143-0.021-0.277,0.08-0.298,0.224c-0.021,0.144,0.08,0.277,0.224,0.298l0,0C49.277,161.49,49.41,161.391,49.433,161.248z   M42.499,135.343c0.115-0.095,0.137-0.261,0.049-0.382c-0.084-0.113-0.245-0.137-0.358-0.052c-0.003,0.003-0.006,0.005-0.009,0.007  c-0.118,0.085-0.144,0.251-0.058,0.368c0.001,0.001,0.002,0.002,0.003,0.004C42.217,135.4,42.379,135.425,42.499,135.343  L42.499,135.343z M37.398,139.199c0.114-0.089,0.134-0.253,0.047-0.367c-0.084-0.113-0.245-0.137-0.358-0.052  c-0.003,0.003-0.006,0.005-0.009,0.007c-0.118,0.085-0.144,0.251-0.059,0.368c0.001,0.001,0.002,0.002,0.003,0.004  C37.116,139.272,37.283,139.29,37.398,139.199L37.398,139.199z M32.286,143.076c0.118-0.085,0.144-0.251,0.059-0.368l-0.003-0.004  c-0.078-0.113-0.235-0.139-0.348-0.061c-0.007,0.004-0.014,0.01-0.02,0.016c-0.118,0.085-0.144,0.251-0.059,0.368  c0.001,0.001,0.002,0.002,0.003,0.004C32.009,143.14,32.17,143.16,32.286,143.076L32.286,143.076z M45.456,149.072  c0.14-0.042,0.221-0.186,0.182-0.328c-0.036-0.14-0.178-0.224-0.318-0.188c-0.141,0.039-0.227,0.181-0.198,0.324  C45.163,149.024,45.311,149.109,45.456,149.072L45.456,149.072z M39.253,150.686c0.137-0.031,0.224-0.167,0.193-0.303  c-0.001-0.005-0.003-0.01-0.003-0.015c-0.036-0.14-0.178-0.224-0.318-0.188c-0.141,0.039-0.227,0.181-0.198,0.324  C38.967,150.643,39.112,150.725,39.253,150.686L39.253,150.686z M30.968,129.285c0.073-0.118,0.036-0.272-0.081-0.345  c-0.005-0.003-0.009-0.006-0.014-0.008c-0.124-0.077-0.286-0.039-0.363,0.084c-0.001,0.003-0.003,0.006-0.005,0.008  c-0.068,0.129-0.024,0.287,0.102,0.362c0.123,0.073,0.283,0.032,0.356-0.091C30.965,129.292,30.966,129.288,30.968,129.285  L30.968,129.285z M27.731,134.818c0.074-0.127,0.033-0.29-0.093-0.368c-0.13-0.071-0.293-0.025-0.364,0.105  c-0.068,0.123-0.029,0.279,0.09,0.355c0.121,0.077,0.283,0.042,0.36-0.079C27.726,134.827,27.728,134.822,27.731,134.818  L27.731,134.818z M55.691,158.583c0.161-0.052,0.255-0.219,0.211-0.383c-0.044-0.163-0.211-0.26-0.373-0.217  c-0.162,0.049-0.256,0.219-0.211,0.383C55.362,158.529,55.528,158.626,55.691,158.583L55.691,158.583z M48.551,160.521  c0.163-0.043,0.26-0.211,0.217-0.373c-0.043-0.162-0.211-0.26-0.373-0.217c-0.163,0.043-0.26,0.211-0.217,0.373  C48.222,160.468,48.389,160.564,48.551,160.521L48.551,160.521z M36.821,133.813c0.081-0.151,0.03-0.339-0.117-0.428  c-0.15-0.08-0.338-0.022-0.417,0.129c-0.077,0.146-0.025,0.326,0.116,0.409C36.549,134.005,36.733,133.957,36.821,133.813  L36.821,133.813z M33.148,140.232c0.08-0.147,0.032-0.331-0.112-0.419c-0.147-0.085-0.334-0.035-0.419,0.112  c-0.085,0.147-0.035,0.334,0.112,0.419C32.876,140.425,33.062,140.375,33.148,140.232L33.148,140.232z M46.288,146.86  c0.127-0.109,0.15-0.298,0.054-0.435c-0.107-0.129-0.298-0.149-0.429-0.045c-0.134,0.098-0.162,0.287-0.063,0.421  c0,0,0.003,0.003,0.004,0.005C45.959,146.941,46.152,146.965,46.288,146.86L46.288,146.86L46.288,146.86z M40.432,151.389  c0.135-0.105,0.159-0.299,0.055-0.434l0-0.001c-0.101-0.13-0.29-0.153-0.419-0.05l0,0c-0.133,0.103-0.158,0.293-0.056,0.425  C40.11,151.462,40.299,151.488,40.432,151.389L40.432,151.389z M50.293,149.976c0.133-0.1,0.16-0.29,0.059-0.425  c-0.101-0.135-0.29-0.16-0.425-0.059c-0.13,0.098-0.16,0.282-0.066,0.415C49.962,150.046,50.154,150.076,50.293,149.976  L50.293,149.976z M44.282,154.239c0.137-0.101,0.168-0.293,0.068-0.431c-0.099-0.132-0.284-0.164-0.422-0.074  c-0.136,0.103-0.17,0.293-0.077,0.436C43.953,154.306,44.143,154.335,44.282,154.239L44.282,154.239z M36.891,142.372  c0.086-0.146,0.041-0.335-0.103-0.424c-0.141-0.087-0.328-0.044-0.415,0.097c-0.093,0.135-0.059,0.321,0.076,0.413  c0.004,0.003,0.007,0.005,0.012,0.006c0.141,0.094,0.33,0.056,0.424-0.085C36.888,142.378,36.89,142.375,36.891,142.372  L36.891,142.372z"/> </g><g transform="translate(751.3857039130506 313.6836642080797) scale(0.5375750388015298 0.5377901548634751)" ><defs>
    <clipPath id="clipPath_Vd1_yYO-Wxsa4-IeuJ1C3">
    <rect x="0" y="0" width="400" height="357" />
    </clipPath></defs> <g>  <polygon fill="#EEEEEE" points="382.389,222.748 384.906,201.527 384.389,201.363 374.091,220.083  "/>     <rect x="292.276" y="279.341" transform="matrix(0.3055 -0.9522 0.9522 0.3055 -21.3289 538.1597)" fill="#428DFC" width="131.924" height="8.718"/>  <polygon fill="#151A4F" points="379.575,210.113 383.73,211.446 384.906,201.527 384.389,201.363  "/> </g> <rect y="158.425" fill="#E94A47" width="400" height="10.93"/> <rect x="20.429" y="123.119" fill="#23286B" width="147.884" height="35.001"/> <rect x="11.321" y="99.435" fill="#428DFC" width="147.884" height="24.071"/> <rect x="30.589" y="130.458" fill="#D6D7D8" width="138.853" height="20.323"/> <rect x="30.589" y="145.827" fill="#EEEEEE" width="138.853" height="2.562"/> <rect x="30.589" y="140.704" fill="#EEEEEE" width="138.853" height="2.562"/> <rect x="30.589" y="135.58" fill="#EEEEEE" width="138.853" height="2.562"/> <rect x="30.589" y="130.458" fill="#EEEEEE" width="138.853" height="2.562"/> <rect x="12.231" y="63.914" fill="#D62929" width="174.458" height="35.001"/> <polygon fill="#1D72D8" points="248.71,149.465 222.68,159.059 167.605,9.594 193.635,0 "/> <polygon fill="#428DFC" points="278.079,149.466 252.05,159.06 196.975,9.595 223.005,0.001 "/> <polygon fill="#78A9EF" points="325.345,146.303 300.704,159.043 227.57,17.547 252.211,4.806 "/> <rect x="23.7" y="208.728" fill="#A1C3FC" width="29.746" height="137.598"/> <circle fill="#FFFFFF" cx="145.662" cy="82.424" r="9.832"/> <rect x="269.607" y="91.832" transform="matrix(0.8883 -0.4593 0.4593 0.8883 -12.1974 140.8609)" fill="#D6D7D8" width="27.74" height="7.347"/> <rect x="143.734" y="213.294" transform="matrix(0.9652 -0.2616 0.2616 0.9652 -67.8201 50.3901)" fill="#78A9EF" width="23.2" height="133.211"/> <rect x="147.078" y="289.164" transform="matrix(0.9652 -0.2616 0.2616 0.9652 -70.9315 51.6946)" fill="#D6D7D8" width="23.2" height="6.145"/> <rect x="23.7" y="296.125" fill="#428DFC" width="29.746" height="9.002"/> <rect x="23.7" y="313.738" fill="#428DFC" width="29.746" height="9.002"/> <rect x="59.9" y="208.728" fill="#A1C3FC" width="29.746" height="137.598"/> <rect x="59.9" y="296.125" fill="#428DFC" width="29.746" height="9.002"/> <rect x="59.9" y="313.738" fill="#428DFC" width="29.746" height="9.002"/> <rect x="96.103" y="208.728" fill="#A1C3FC" width="29.746" height="137.598"/> <rect x="96.103" y="296.125" fill="#428DFC" width="29.746" height="9.002"/> <rect x="96.103" y="313.738" fill="#428DFC" width="29.746" height="9.002"/> <rect y="346.07" fill="#E94A47" width="400" height="10.93"/> <rect x="302.405" y="270.796" fill="#151A4F" width="70.042" height="74.372"/> <rect x="327.349" y="297.684" transform="matrix(0.9704 0.2415 -0.2415 0.9704 82.2353 -70.7542)" fill="#89B3F4" width="4.732" height="4.733"/> <rect x="316.471" y="300.914" transform="matrix(0.9307 -0.3658 0.3658 0.9307 -89.82 139.0927)" fill="#A1C3FC" width="11.265" height="11.267"/> <rect x="355.391" y="320.63" transform="matrix(0.7641 0.6451 -0.6451 0.7641 295.6079 -155.9267)" fill="#E94A47" width="11.266" height="11.266"/> <rect x="308.855" y="310.806" transform="matrix(0.9478 -0.3189 0.3189 0.9478 -84.1911 116.3863)" fill="#E94A47" width="9.079" height="9.08"/> <rect x="327.073" y="275.59" transform="matrix(0.7641 0.6451 -0.6451 0.7641 262.5841 -149.541)" fill="#1D72D8" width="17.415" height="17.416"/> <polygon fill="#A1C3FC" points="354.351,344.789 350.394,334.722 339.91,338.843 342.247,344.789 "/> </g><g transform="translate(1181.4757179263831 312.84662868821385) scale(-0.539429439673002 0.5396452977921189)" ><defs>
    <clipPath id="clipPath_W0hjS_wTSDC_tDktpCnG3">
    <rect x="0" y="0" width="400" height="357" />
    </clipPath></defs> <g>  <polygon fill="#EEEEEE" points="382.389,222.748 384.906,201.527 384.389,201.363 374.091,220.083  "/>     <rect x="292.276" y="279.341" transform="matrix(0.3055 -0.9522 0.9522 0.3055 -21.3289 538.1597)" fill="#428DFC" width="131.924" height="8.718"/>  <polygon fill="#151A4F" points="379.575,210.113 383.73,211.446 384.906,201.527 384.389,201.363  "/> </g> <rect y="158.425" fill="#E94A47" width="400" height="10.93"/> <rect x="20.429" y="123.119" fill="#23286B" width="147.884" height="35.001"/> <rect x="11.321" y="99.435" fill="#428DFC" width="147.884" height="24.071"/> <rect x="30.589" y="130.458" fill="#D6D7D8" width="138.853" height="20.323"/> <rect x="30.589" y="145.827" fill="#EEEEEE" width="138.853" height="2.562"/> <rect x="30.589" y="140.704" fill="#EEEEEE" width="138.853" height="2.562"/> <rect x="30.589" y="135.58" fill="#EEEEEE" width="138.853" height="2.562"/> <rect x="30.589" y="130.458" fill="#EEEEEE" width="138.853" height="2.562"/> <rect x="12.231" y="63.914" fill="#D62929" width="174.458" height="35.001"/> <polygon fill="#1D72D8" points="248.71,149.465 222.68,159.059 167.605,9.594 193.635,0 "/> <polygon fill="#428DFC" points="278.079,149.466 252.05,159.06 196.975,9.595 223.005,0.001 "/> <polygon fill="#78A9EF" points="325.345,146.303 300.704,159.043 227.57,17.547 252.211,4.806 "/> <rect x="23.7" y="208.728" fill="#A1C3FC" width="29.746" height="137.598"/> <circle fill="#FFFFFF" cx="145.662" cy="82.424" r="9.832"/> <rect x="269.607" y="91.832" transform="matrix(0.8883 -0.4593 0.4593 0.8883 -12.1974 140.8609)" fill="#D6D7D8" width="27.74" height="7.347"/> <rect x="143.734" y="213.294" transform="matrix(0.9652 -0.2616 0.2616 0.9652 -67.8201 50.3901)" fill="#78A9EF" width="23.2" height="133.211"/> <rect x="147.078" y="289.164" transform="matrix(0.9652 -0.2616 0.2616 0.9652 -70.9315 51.6946)" fill="#D6D7D8" width="23.2" height="6.145"/> <rect x="23.7" y="296.125" fill="#428DFC" width="29.746" height="9.002"/> <rect x="23.7" y="313.738" fill="#428DFC" width="29.746" height="9.002"/> <rect x="59.9" y="208.728" fill="#A1C3FC" width="29.746" height="137.598"/> <rect x="59.9" y="296.125" fill="#428DFC" width="29.746" height="9.002"/> <rect x="59.9" y="313.738" fill="#428DFC" width="29.746" height="9.002"/> <rect x="96.103" y="208.728" fill="#A1C3FC" width="29.746" height="137.598"/> <rect x="96.103" y="296.125" fill="#428DFC" width="29.746" height="9.002"/> <rect x="96.103" y="313.738" fill="#428DFC" width="29.746" height="9.002"/> <rect y="346.07" fill="#E94A47" width="400" height="10.93"/> <rect x="302.405" y="270.796" fill="#151A4F" width="70.042" height="74.372"/> <rect x="327.349" y="297.684" transform="matrix(0.9704 0.2415 -0.2415 0.9704 82.2353 -70.7542)" fill="#89B3F4" width="4.732" height="4.733"/> <rect x="316.471" y="300.914" transform="matrix(0.9307 -0.3658 0.3658 0.9307 -89.82 139.0927)" fill="#A1C3FC" width="11.265" height="11.267"/> <rect x="355.391" y="320.63" transform="matrix(0.7641 0.6451 -0.6451 0.7641 295.6079 -155.9267)" fill="#E94A47" width="11.266" height="11.266"/> <rect x="308.855" y="310.806" transform="matrix(0.9478 -0.3189 0.3189 0.9478 -84.1911 116.3863)" fill="#E94A47" width="9.079" height="9.08"/> <rect x="327.073" y="275.59" transform="matrix(0.7641 0.6451 -0.6451 0.7641 262.5841 -149.541)" fill="#1D72D8" width="17.415" height="17.416"/> <polygon fill="#A1C3FC" points="354.351,344.789 350.394,334.722 339.91,338.843 342.247,344.789 "/> </g><g transform="translate(978.0871578129197 21.667105190106312) scale(0.5133321054677018 0.5135375204758921)" ><defs>
    <clipPath id="clipPath_6ADdYPEeDIhmiXBdiKp6b">
    <rect x="0" y="0" width="400" height="357" />
    </clipPath></defs> <g>  <polygon fill="#EEEEEE" points="382.389,222.748 384.906,201.527 384.389,201.363 374.091,220.083  "/>     <rect x="292.276" y="279.341" transform="matrix(0.3055 -0.9522 0.9522 0.3055 -21.3289 538.1597)" fill="#428DFC" width="131.924" height="8.718"/>  <polygon fill="#151A4F" points="379.575,210.113 383.73,211.446 384.906,201.527 384.389,201.363  "/> </g> <rect y="158.425" fill="#E94A47" width="400" height="10.93"/> <rect x="20.429" y="123.119" fill="#23286B" width="147.884" height="35.001"/> <rect x="11.321" y="99.435" fill="#428DFC" width="147.884" height="24.071"/> <rect x="30.589" y="130.458" fill="#D6D7D8" width="138.853" height="20.323"/> <rect x="30.589" y="145.827" fill="#EEEEEE" width="138.853" height="2.562"/> <rect x="30.589" y="140.704" fill="#EEEEEE" width="138.853" height="2.562"/> <rect x="30.589" y="135.58" fill="#EEEEEE" width="138.853" height="2.562"/> <rect x="30.589" y="130.458" fill="#EEEEEE" width="138.853" height="2.562"/> <rect x="12.231" y="63.914" fill="#D62929" width="174.458" height="35.001"/> <polygon fill="#1D72D8" points="248.71,149.465 222.68,159.059 167.605,9.594 193.635,0 "/> <polygon fill="#428DFC" points="278.079,149.466 252.05,159.06 196.975,9.595 223.005,0.001 "/> <polygon fill="#78A9EF" points="325.345,146.303 300.704,159.043 227.57,17.547 252.211,4.806 "/> <rect x="23.7" y="208.728" fill="#A1C3FC" width="29.746" height="137.598"/> <circle fill="#FFFFFF" cx="145.662" cy="82.424" r="9.832"/> <rect x="269.607" y="91.832" transform="matrix(0.8883 -0.4593 0.4593 0.8883 -12.1974 140.8609)" fill="#D6D7D8" width="27.74" height="7.347"/> <rect x="143.734" y="213.294" transform="matrix(0.9652 -0.2616 0.2616 0.9652 -67.8201 50.3901)" fill="#78A9EF" width="23.2" height="133.211"/> <rect x="147.078" y="289.164" transform="matrix(0.9652 -0.2616 0.2616 0.9652 -70.9315 51.6946)" fill="#D6D7D8" width="23.2" height="6.145"/> <rect x="23.7" y="296.125" fill="#428DFC" width="29.746" height="9.002"/> <rect x="23.7" y="313.738" fill="#428DFC" width="29.746" height="9.002"/> <rect x="59.9" y="208.728" fill="#A1C3FC" width="29.746" height="137.598"/> <rect x="59.9" y="296.125" fill="#428DFC" width="29.746" height="9.002"/> <rect x="59.9" y="313.738" fill="#428DFC" width="29.746" height="9.002"/> <rect x="96.103" y="208.728" fill="#A1C3FC" width="29.746" height="137.598"/> <rect x="96.103" y="296.125" fill="#428DFC" width="29.746" height="9.002"/> <rect x="96.103" y="313.738" fill="#428DFC" width="29.746" height="9.002"/> <rect y="346.07" fill="#E94A47" width="400" height="10.93"/> <rect x="302.405" y="270.796" fill="#151A4F" width="70.042" height="74.372"/> <rect x="327.349" y="297.684" transform="matrix(0.9704 0.2415 -0.2415 0.9704 82.2353 -70.7542)" fill="#89B3F4" width="4.732" height="4.733"/> <rect x="316.471" y="300.914" transform="matrix(0.9307 -0.3658 0.3658 0.9307 -89.82 139.0927)" fill="#A1C3FC" width="11.265" height="11.267"/> <rect x="355.391" y="320.63" transform="matrix(0.7641 0.6451 -0.6451 0.7641 295.6079 -155.9267)" fill="#E94A47" width="11.266" height="11.266"/> <rect x="308.855" y="310.806" transform="matrix(0.9478 -0.3189 0.3189 0.9478 -84.1911 116.3863)" fill="#E94A47" width="9.079" height="9.08"/> <rect x="327.073" y="275.59" transform="matrix(0.7641 0.6451 -0.6451 0.7641 262.5841 -149.541)" fill="#1D72D8" width="17.415" height="17.416"/> <polygon fill="#A1C3FC" points="354.351,344.789 350.394,334.722 339.91,338.843 342.247,344.789 "/> </g>
              </svg>