<?xml version="1.0" encoding="iso-8859-1" ?>
              <svg
                version="1.1"
                xmlns="http://www.w3.org/2000/svg"
                xmlns:xlink="http://www.w3.org/1999/xlink"
                viewBox="0 0 1221 814"
                width="1221"
                height="814"
              >
                <g transform="translate(927.68 407) scale(1.019 1.018) rotate(0 149.9705593719333 199.901768172888)"><g clip-path="url(#clipPath_UtexvPEz_xMHp2N4jTOPL)"><defs>
          <clipPath id="clipPath_UtexvPEz_xMHp2N4jTOPL">
            <rect x="0" y="0" width="300" height="400" />
          </clipPath>
       </defs> <path d="M258.866,362.453l-5.205-14.201c-1.877-0.091-3.724,0.113-5.516,0.714l5.625,15.354  c0.315,0.861-0.126,1.814-0.987,2.131c-0.861,0.315-1.814-0.126-2.131-0.987l-5.522-15.068c-1.673,1.048-3.11,2.43-4.288,4.066  l4.66,12.713c0.315,0.861-0.126,1.814-0.989,2.131c-0.861,0.315-1.814-0.126-2.131-0.987l-3.66-9.985  c-2.102,5.2-2.224,11.789,0.146,18.259c0.056,0.152,0.113,0.3,0.171,0.449c-1.219,0.702-2.407,1.462-3.549,2.302  c-3.202,2.352-7.331,6.343-8.812,11.999l1.605,0.42c1.357-5.185,5.2-8.888,8.188-11.082c1.03-0.756,2.105-1.449,3.213-2.093  c2.486,5.508,6.463,9.793,10.916,12.16l-3.478-9.488c-0.315-0.861,0.126-1.814,0.987-2.131c0.861-0.315,1.814,0.126,2.131,0.989  l4.48,12.226c1.954,0.483,3.939,0.591,5.877,0.27l-5.206-14.207c-0.315-0.861,0.126-1.814,0.987-2.131  c0.861-0.315,1.814,0.126,2.131,0.989l5.278,14.401c1.701-0.752,3.219-1.88,4.582-3.266l-4.766-13.003  c-0.315-0.861,0.126-1.814,0.987-2.131c0.861-0.315,1.814,0.126,2.131,0.987l4.096,11.176c1.324-1.88,2.478-3.994,3.513-6.183  l-2.571-7.016c-0.315-0.861,0.126-1.814,0.987-2.131c0.861-0.315,1.814,0.126,2.131,0.989l1.369,3.737  c2.53-6.283,4.323-12.285,6.437-14.291c-3.58-0.752-8.677-4.18-14.322-7.225l1.772,4.836c0.315,0.861-0.126,1.814-0.989,2.131  c-0.861,0.315-1.814-0.126-2.131-0.989l-2.987-8.151c-2.187-0.995-4.416-1.829-6.637-2.346l4.586,12.518  c0.315,0.861-0.126,1.814-0.987,2.131C260.136,363.757,259.181,363.315,258.866,362.453z" fill="#E0EBFE"/> <path d="M136.137,80.734" fill="none" stroke="rgb(192,192,231)"/> <rect x="75.945" y="77.081" width="68.186" height="16.134" fill="rgb(221,189,189)"/> <rect x="71.747" y="66.164" width="68.186" height="11.097" fill="rgb(199,215,240)"/> <rect x="80.629" y="80.465" width="64.021" height="9.37" fill="#D6D7D8"/> <rect x="80.629" y="87.549" width="64.021" height="1.181" fill="#EEEEEE"/> <rect x="80.629" y="85.188" width="64.021" height="1.181" fill="#EEEEEE"/> <rect x="80.629" y="82.827" width="64.021" height="1.181" fill="#EEEEEE"/> <rect x="80.629" y="80.465" width="64.021" height="1.181" fill="#EEEEEE"/> <rect x="72.168" y="49.788" width="80.437" height="16.134" fill="rgb(221,189,189)"/> <rect x="77.693" y="53.171" width="75.525" height="9.37" fill="#D6D7D8"/> <rect x="77.693" y="60.257" width="75.525" height="1.181" fill="#EEEEEE"/> <rect x="77.693" y="57.896" width="75.525" height="1.181" fill="#EEEEEE"/> <rect x="77.693" y="55.533" width="75.525" height="1.181" fill="#EEEEEE"/> <rect x="77.693" y="53.171" width="75.525" height="1.181" fill="#EEEEEE"/> <rect x="20.849" y="377.582" width="68.186" height="16.134" fill="rgb(221,189,189)"/> <rect x="16.651" y="366.665" width="68.186" height="11.097" fill="rgb(199,215,240)"/> <rect x="25.533" y="380.964" width="64.021" height="9.37" fill="#D6D7D8"/> <rect x="25.533" y="388.05" width="64.021" height="1.181" fill="#EEEEEE"/> <rect x="25.533" y="385.687" width="64.021" height="1.181" fill="#EEEEEE"/> <rect x="25.533" y="383.326" width="64.021" height="1.181" fill="#EEEEEE"/> <rect x="25.533" y="380.964" width="64.021" height="1.181" fill="#EEEEEE"/> <rect x="17.07" y="350.288" width="80.437" height="16.134" fill="rgb(221,189,189)"/> <rect x="22.596" y="353.672" width="75.525" height="9.37" fill="#D6D7D8"/> <rect x="22.596" y="360.756" width="75.525" height="1.181" fill="#EEEEEE"/> <rect x="22.596" y="358.395" width="75.525" height="1.181" fill="#EEEEEE"/> <rect x="22.596" y="356.033" width="75.525" height="1.181" fill="#EEEEEE"/> <rect x="22.596" y="353.672" width="75.525" height="1.181" fill="#EEEEEE"/> <rect x="10.875" y="93.356" width="241.404" height="5.039" fill="#D6D7D8"/> <rect x="9.352" y="394.961" width="241.404" height="5.039" fill="#D6D7D8"/> <rect x="21.897" width="20.154" height="93.216" fill="rgb(221,189,189)"/> <rect x="156.103" y="20.278" transform="matrix(0.9383 -0.3458 0.3458 0.9383 -9.6838 59.7083)" width="12.791" height="73.433" fill="rgb(162,188,204)"/> <rect x="169.644" y="20.279" transform="matrix(0.9383 -0.3458 0.3458 0.9383 -8.8486 64.3912)" width="12.791" height="73.433" fill="rgb(199,215,240)"/> <rect x="187.605" y="21.373" transform="matrix(0.8883 -0.4592 0.4592 0.8883 -5.0101 95.5742)" width="12.789" height="73.43" fill="rgb(253,243,227)"/> <rect x="161.599" y="228.986" transform="matrix(-0.9383 -0.3458 0.3458 -0.9383 233.744 573.105)" width="12.791" height="73.433" fill="rgb(162,188,204)"/> <rect x="148.058" y="228.986" transform="matrix(-0.9383 -0.3458 0.3458 -0.9383 207.4984 568.423)" width="12.791" height="73.433" fill="rgb(199,215,240)"/> <rect x="206.553" y="117.061" width="13.13" height="80.676" fill="rgb(199,215,240)"/> <g>  <rect x="219.47" y="111.471" width="20.415" height="86.265" fill="rgb(192,192,231)"/>  <rect x="223.749" y="110.811" width="11.852" height="80.998" fill="#D6D7D8"/>  <rect x="232.713" y="110.811" width="1.494" height="80.998" fill="#EEEEEE"/>  <rect x="229.724" y="110.811" width="1.494" height="80.998" fill="#EEEEEE"/>  <rect x="226.737" y="110.811" width="1.494" height="80.998" fill="#EEEEEE"/>  <rect x="223.749" y="110.811" width="1.494" height="80.998" fill="#EEEEEE"/> </g> <rect x="187.177" y="102.562" width="19.091" height="95.173" fill="rgb(221,189,189)"/> <rect x="232.253" y="328.003" width="10.763" height="66.134" fill="rgb(199,215,240)"/> <rect x="216.37" y="316.12" width="15.65" height="78.02" fill="rgb(221,189,189)"/> <rect x="45.201" width="20.154" height="93.216" fill="rgb(221,189,189)"/> <rect x="18.56" y="132.357" width="14.459" height="66.871" fill="#A1C3FC"/> <rect x="76.89" y="134.58" transform="matrix(0.9652 -0.2616 0.2616 0.9652 -40.7994 27.4025)" width="11.277" height="64.74" fill="rgb(253,243,227)"/> <rect x="78.516" y="171.454" transform="matrix(0.9652 -0.2616 0.2616 0.9652 -42.3115 28.0366)" width="11.277" height="2.986" fill="#D6D7D8"/> <rect x="18.56" y="174.832" width="14.459" height="4.375" fill="rgb(199,215,240)"/> <rect x="18.56" y="183.391" width="14.459" height="4.375" fill="rgb(199,215,240)"/> <rect x="36.156" y="132.357" width="14.459" height="66.871" fill="#A1C3FC"/> <rect x="36.156" y="174.832" width="14.459" height="4.375" fill="rgb(199,215,240)"/> <rect x="36.156" y="183.391" width="14.459" height="4.375" fill="rgb(199,215,240)"/> <rect x="53.751" y="132.357" width="14.459" height="66.871" fill="#A1C3FC"/> <rect x="53.751" y="174.832" width="14.459" height="4.375" fill="rgb(199,215,240)"/> <rect x="53.751" y="183.391" width="14.459" height="4.375" fill="rgb(199,215,240)"/> <rect x="100.248" y="324.932" transform="matrix(0.988 -0.1545 0.1545 0.988 -54.3622 20.9934)" width="15.271" height="70.626" fill="#A1C3FC"/> <rect x="102.081" y="369.649" transform="matrix(0.988 -0.1545 0.1545 0.988 -56.1499 21.4171)" width="15.271" height="4.62" fill="rgb(199,215,240)"/> <rect x="103.479" y="378.581" transform="matrix(0.988 -0.1545 0.1545 0.988 -57.513 21.7404)" width="15.271" height="4.62" fill="rgb(199,215,240)"/> <rect x="119.047" y="324.933" transform="matrix(0.988 -0.1545 0.1545 0.988 -54.1365 23.8977)" width="15.271" height="70.626" fill="#A1C3FC"/> <rect x="120.878" y="369.65" transform="matrix(0.988 -0.1545 0.1545 0.988 -55.9243 24.3213)" width="15.271" height="4.62" fill="rgb(199,215,240)"/> <rect x="122.276" y="378.582" transform="matrix(0.988 -0.1545 0.1545 0.988 -57.2875 24.6445)" width="15.271" height="4.62" fill="rgb(199,215,240)"/> <rect x="137.844" y="324.934" transform="matrix(0.988 -0.1545 0.1545 0.988 -53.9109 26.8019)" width="15.271" height="70.626" fill="#A1C3FC"/> <rect x="139.676" y="369.65" transform="matrix(0.988 -0.1545 0.1545 0.988 -55.6987 27.2256)" width="15.271" height="4.62" fill="rgb(199,215,240)"/> <rect x="141.073" y="378.582" transform="matrix(0.988 -0.1545 0.1545 0.988 -57.0619 27.5487)" width="15.271" height="4.62" fill="rgb(199,215,240)"/> <rect x="100.232" y="132.357" width="14.459" height="66.871" fill="#A1C3FC"/> <rect x="100.232" y="174.832" width="14.459" height="4.375" fill="rgb(199,215,240)"/> <rect x="100.232" y="183.391" width="14.459" height="4.375" fill="rgb(199,215,240)"/> <rect x="117.829" y="132.357" width="14.459" height="66.871" fill="#A1C3FC"/> <rect x="117.829" y="174.832" width="14.459" height="4.375" fill="rgb(199,215,240)"/> <rect x="117.829" y="183.391" width="14.459" height="4.375" fill="rgb(199,215,240)"/> <rect x="135.424" y="132.357" width="14.459" height="66.871" fill="#A1C3FC"/> <rect x="135.424" y="174.832" width="14.459" height="4.375" fill="rgb(199,215,240)"/> <rect x="135.424" y="183.391" width="14.459" height="4.375" fill="rgb(199,215,240)"/> <rect x="87.917" y="244.632" width="12.608" height="58.309" fill="#A1C3FC"/> <rect x="87.917" y="274.575" width="12.608" height="7.63" fill="rgb(199,215,240)"/> <rect x="87.917" y="289.13" width="12.608" height="3.814" fill="rgb(199,215,240)"/> <rect x="103.259" y="244.632" width="12.608" height="58.309" fill="#A1C3FC"/> <rect x="103.259" y="274.575" width="12.608" height="7.63" fill="rgb(199,215,240)"/> <rect x="103.259" y="289.13" width="12.608" height="3.814" fill="rgb(199,215,240)"/> <rect x="118.603" y="244.632" width="12.608" height="58.309" fill="#A1C3FC"/> <rect x="118.603" y="274.575" width="12.608" height="7.63" fill="rgb(199,215,240)"/> <rect x="118.603" y="289.13" width="12.608" height="3.814" fill="rgb(199,215,240)"/> <rect x="21.897" y="25.109" width="20.154" height="42.997" fill="rgb(240,222,219)"/> <rect x="45.201" y="25.109" width="20.154" height="42.997" fill="rgb(240,222,219)"/> <rect x="16.712" y="237.502" width="14.072" height="65.081" fill="rgb(192,192,231)"/> <rect x="33.006" y="237.184" transform="matrix(0.9984 -0.0573 0.0573 0.9984 -15.3889 2.7375)" width="14.074" height="65.087" fill="rgb(221,189,189)"/> <rect x="16.712" y="255.033" width="14.072" height="30.02" fill="rgb(162,188,204)"/> <rect x="70.565" y="237.502" width="14.072" height="65.081" fill="rgb(221,189,189)"/> <rect x="70.565" y="255.033" width="14.072" height="30.02" fill="rgb(240,222,219)"/> <rect x="33.006" y="254.717" transform="matrix(0.9984 -0.0573 0.0573 0.9984 -15.389 2.7375)" width="14.074" height="30.023" fill="rgb(240,222,219)"/> <rect x="49.842" y="236.796" transform="matrix(0.9906 -0.1368 0.1368 0.9906 -36.3105 10.313)" width="14.072" height="65.081" fill="rgb(221,189,189)"/> <rect x="49.842" y="254.327" transform="matrix(0.9906 -0.1368 0.1368 0.9906 -36.3106 10.313)" width="14.072" height="30.02" fill="rgb(240,222,219)"/> <linearGradient id="SVGID_1_UtexvPEz_xMHp2N4jTOPL" gradientUnits="userSpaceOnUse" x1="12.4912" y1="647.3708" x2="82.9441" y2="647.3708" gradientTransform="matrix(0.2134 0 0 0.2134 213.0549 128.9843)">  <stop offset="0" stop-color="rgb(255,248,230)"/>  <stop offset="1" stop-color="rgb(253,243,227)"/> </linearGradient> <rect x="215.721" y="232.385" width="15.038" height="69.55" fill="url(#SVGID_1_UtexvPEz_xMHp2N4jTOPL)"/> <linearGradient id="SVGID_2_UtexvPEz_xMHp2N4jTOPL" gradientUnits="userSpaceOnUse" x1="81.8094" y1="647.3708" x2="152.2624" y2="647.3708" gradientTransform="matrix(0.2134 0 0 0.2134 213.0549 128.9843)">  <stop offset="0" stop-color="rgb(255,248,230)"/>  <stop offset="1" stop-color="rgb(253,243,227)"/> </linearGradient> <rect x="230.516" y="232.385" width="15.038" height="69.55" fill="url(#SVGID_2_UtexvPEz_xMHp2N4jTOPL)"/> <linearGradient id="SVGID_3_UtexvPEz_xMHp2N4jTOPL" gradientUnits="userSpaceOnUse" x1="12.4912" y1="647.3707" x2="82.9441" y2="647.3707" gradientTransform="matrix(0.2134 0 0 0.2134 213.0549 128.9843)">  <stop offset="0" stop-color="#A1C3FC"/>  <stop offset="1" stop-color="rgb(253,243,227)"/> </linearGradient> <rect x="215.721" y="251.12" width="15.038" height="32.081" fill="url(#SVGID_3_UtexvPEz_xMHp2N4jTOPL)"/> <linearGradient id="SVGID_4_UtexvPEz_xMHp2N4jTOPL" gradientUnits="userSpaceOnUse" x1="81.8094" y1="647.3707" x2="152.2624" y2="647.3707" gradientTransform="matrix(0.2134 0 0 0.2134 213.0549 128.9843)">  <stop offset="0" stop-color="#A1C3FC"/>  <stop offset="1" stop-color="rgb(253,243,227)"/> </linearGradient> <rect x="230.516" y="251.12" width="15.038" height="32.081" fill="url(#SVGID_4_UtexvPEz_xMHp2N4jTOPL)"/> <linearGradient id="SVGID_5_UtexvPEz_xMHp2N4jTOPL" gradientUnits="userSpaceOnUse" x1="-124.1682" y1="647.3708" x2="-53.7152" y2="647.3708" gradientTransform="matrix(0.2134 0 0 0.2134 213.0549 128.9843)">  <stop offset="0" stop-color="rgb(255,248,230)"/>  <stop offset="1" stop-color="rgb(253,243,227)"/> </linearGradient> <rect x="186.552" y="232.385" width="15.038" height="69.55" fill="url(#SVGID_5_UtexvPEz_xMHp2N4jTOPL)"/> <linearGradient id="SVGID_6_UtexvPEz_xMHp2N4jTOPL" gradientUnits="userSpaceOnUse" x1="-54.8502" y1="647.3708" x2="15.6028" y2="647.3708" gradientTransform="matrix(0.2134 0 0 0.2134 213.0549 128.9843)">  <stop offset="0" stop-color="rgb(255,248,230)"/>  <stop offset="1" stop-color="rgb(253,243,227)"/> </linearGradient> <rect x="201.348" y="232.385" width="15.038" height="69.55" fill="url(#SVGID_6_UtexvPEz_xMHp2N4jTOPL)"/> <linearGradient id="SVGID_7_UtexvPEz_xMHp2N4jTOPL" gradientUnits="userSpaceOnUse" x1="-124.1682" y1="647.3707" x2="-53.7152" y2="647.3707" gradientTransform="matrix(0.2134 0 0 0.2134 213.0549 128.9843)">  <stop offset="0" stop-color="#A1C3FC"/>  <stop offset="1" stop-color="rgb(253,243,227)"/> </linearGradient> <rect x="186.552" y="251.12" width="15.038" height="32.081" fill="url(#SVGID_7_UtexvPEz_xMHp2N4jTOPL)"/> <linearGradient id="SVGID_8_UtexvPEz_xMHp2N4jTOPL" gradientUnits="userSpaceOnUse" x1="-54.8502" y1="647.3707" x2="15.6028" y2="647.3707" gradientTransform="matrix(0.2134 0 0 0.2134 213.0549 128.9843)">  <stop offset="0" stop-color="#A1C3FC"/>  <stop offset="1" stop-color="rgb(253,243,227)"/> </linearGradient> <rect x="201.348" y="251.12" width="15.038" height="32.081" fill="url(#SVGID_8_UtexvPEz_xMHp2N4jTOPL)"/> <rect x="10.875" y="197.716" width="241.404" height="5.039" fill="#D6D7D8"/> <rect x="155.105" y="280.009" transform="matrix(-0.9383 -0.3458 0.3458 -0.9383 215.0643 605.0087)" width="12.791" height="6.623" fill="#D6D7D8"/> <linearGradient id="SVGID_9_UtexvPEz_xMHp2N4jTOPL" gradientUnits="userSpaceOnUse" x1="-302.7126" y1="560.0397" x2="-186.8351" y2="560.0397" gradientTransform="matrix(0.2134 0 0 0.2134 213.0549 128.9843)">  <stop offset="0" stop-color="#A1C3FC"/>  <stop offset="1" stop-color="rgb(253,243,227)"/> </linearGradient> <polygon points="148.443,263.577 160.445,268.002 173.176,233.462 161.176,229.039 " fill="url(#SVGID_9_UtexvPEz_xMHp2N4jTOPL)"/> <rect x="10.875" y="302.074" width="241.404" height="5.039" fill="#D6D7D8"/> <g>  <g>   <path d="M213.698,394.798c-0.069,0-0.139-0.009-0.209-0.03c-0.405-0.114-0.64-0.536-0.524-0.94    c5.036-17.699,11.418-35.248,18.971-52.156c0.171-0.384,0.621-0.559,1.005-0.384c0.384,0.171,0.556,0.621,0.384,1.005    c-7.522,16.843-13.878,34.321-18.896,51.951C214.335,394.579,214.03,394.798,213.698,394.798z" fill="#A1C3FC"/>  </g>     <ellipse transform="matrix(-0.4038 0.9149 -0.9149 -0.4038 639.3636 264.0688)" cx="233.634" cy="340.374" rx="3.525" ry="9.425" fill="rgb(185,192,228)"/>  <g>   <path d="M233.554,340.698c-0.105,0-0.213-0.023-0.314-0.069c-0.384-0.174-0.553-0.625-0.379-1.007    c4.311-9.505,9.062-18.955,14.122-28.089c0.206-0.369,0.667-0.498,1.036-0.297c0.367,0.204,0.501,0.667,0.297,1.036    c-5.04,9.098-9.773,18.512-14.067,27.979C234.12,340.532,233.842,340.698,233.554,340.698z" fill="#A1C3FC"/>  </g>     <ellipse transform="matrix(-0.3128 0.9498 -0.9498 -0.3128 620.996 170.3694)" cx="248.867" cy="309.831" rx="4.247" ry="11.356" fill="rgb(185,192,228)"/>  <g>   <path d="M248.991,310.259c-0.128,0-0.256-0.032-0.373-0.097c-0.367-0.207-0.497-0.67-0.289-1.037    c4.245-7.536,8.786-15.007,13.496-22.206c0.23-0.353,0.705-0.452,1.053-0.221c0.352,0.228,0.451,0.702,0.221,1.053    c-4.692,7.173-9.214,14.616-13.443,22.119C249.515,310.119,249.256,310.259,248.991,310.259z" fill="#A1C3FC"/>  </g>     <ellipse transform="matrix(-0.5895 0.8078 -0.8078 -0.5895 651.1489 239.9136)" cx="264.612" cy="285.414" rx="4.247" ry="11.356" fill="rgb(185,192,228)"/>  <g>   <path d="M264.433,285.111c-0.146,0-0.292-0.041-0.422-0.128c-0.349-0.233-0.445-0.707-0.212-1.056    c3.644-5.459,7.473-10.896,11.388-16.159c0.254-0.34,0.733-0.405,1.065-0.158c0.338,0.251,0.41,0.73,0.158,1.065    c-3.9,5.243-7.714,10.66-11.342,16.096C264.919,284.992,264.679,285.111,264.433,285.111z" fill="#A1C3FC"/>  </g>     <ellipse transform="matrix(-0.5895 0.8078 -0.8078 -0.5895 656.1732 197.5242)" cx="277.896" cy="265.496" rx="5.694" ry="15.227" fill="rgb(185,192,228)"/>  <g>   <path d="M278.481,265.419c-0.161,0-0.324-0.05-0.462-0.157c-0.335-0.254-0.401-0.731-0.145-1.066    c2.655-3.488,5.401-6.969,8.16-10.347c0.27-0.326,0.748-0.372,1.072-0.108c0.326,0.267,0.373,0.746,0.108,1.072    c-2.749,3.365-5.485,6.832-8.131,10.306C278.936,265.315,278.709,265.419,278.481,265.419z" fill="#A1C3FC"/>  </g> </g> </g></g><g transform="translate(716.897 538.468) scale(1.593 1.591) rotate(0 88.060263653484 96.49277184160907)"><g clip-path="url(#clipPath_znlXuwbWpSvIWXG8KbnJh)"><defs>
          <clipPath id="clipPath_znlXuwbWpSvIWXG8KbnJh">
            <rect x="0" y="0" width="176.088" height="193.038" />
          </clipPath>
       </defs> <path fill="#F2A19C" d="M76.7,103.648c-0.136,1.429,0.707,4.188,0.863,5.974c0.071,0.813-0.042,2.603,0.368,3.31  c0.657,1.136,4.291,0.75,5.604,0.736c2.269-0.025,4.306-0.627,6.401-1.457c3.318-1.314,0.687-2.268-1.323-2.715  c0.916-0.424,4.203-0.92,4.176-2.511c-0.033-1.933-3.58-1.143-4.424-1.382c1.35-1.267,3.212-2.286,3.309-4.421  c0.102-2.268-2.7-2.75-4.456-2.731c-2.252,0.025-4.619,0.792-6.651,1.765c-1.716,0.821-2.45,2.324-3.896,3.279  C76.637,103.628,76.482,103.679,76.7,103.648z"/> <path fill="#FFBEB6" d="M80.658,105.009c-2.008,4.556-3.636,23.739-10.761,21.538c1.277-4.663,3.076-9.538,4.23-14.187  c1.451-5.845,0.983-9.782,5.22-13.566c9.017-8.054,19.922-1.271,30.928-3.502c-0.067,3.217,1.179,6.162,0.598,9.227  c-4.426,0.239-11.86-3.257-15.125-0.376c-6.308,5.566-4.292,3.067-8.535,7.298c-3.44,3.431-7.777,9.277-7.138,2.112  c0.351-3.93,4.825-7.522,6.215-11.12C83.379,102.164,80.711,105.636,80.658,105.009z"/> <path fill="rgb(158,189,238)" d="M89.877,172.467c4.215,2.638,9.241,3.947,13.583,6.588c3.241,1.972,6.274,4.071,9.623,5.819  c4.304,2.246,9.939,5.282,14.753,5.812c15.492,1.707-1.188-17.318-4.649-21.821c-1.963-2.555-3.9-4.977-5.887-7.42  c-0.961-1.181-1.57-2.046-2.764-3.04c-0.673-0.561-2.646-2.96-3.311-3.136c-1.517-0.402-4.406,2.049-5.833,2.79  c-3.033,1.573-6.092,3.005-9.088,4.656c-3.042,1.676-6.302,2.87-9.115,4.746C89.109,170.527,86.825,170.557,89.877,172.467z"/> <path fill="rgb(111,115,128)" d="M95.685,130.584c-18.816,0.786-32.841-0.325-45.613,1.59c-13.266,1.989-38.31,3.544-34.901,24.347  c4.508,27.509,60.257,16.113,78.517,16.11c6.687-0.001,19.711,0.788,29.589,0.818c3.144-12.05,2.08-29.587-0.003-41.835  C113.493,131.118,94.18,131.09,95.685,130.584z"/> <linearGradient id="SVGID_1_znlXuwbWpSvIWXG8KbnJh" gradientUnits="userSpaceOnUse" x1="56.5832" y1="148.6378" x2="171.0216" y2="148.6378">  <stop offset="0" stop-color="rgb(125,129,156)"/>  <stop offset="1" stop-color="rgb(111,115,128)"/> </linearGradient> <path fill="url(#SVGID_1_znlXuwbWpSvIWXG8KbnJh)" d="M170.811,121.64c0,15.251,2.393,36.482-8.967,48.293c-11.465,11.919-29.031,5.347-43.8,5.369  c-14.666,0.022-30.447,1.333-44.718-0.695c-16.454-2.339-24.204-25.676-7.155-35.097c7.176-3.965,21.397-4.962,29.62-5.775  c9.799-0.969,20.767-0.273,30.273-2.766c0.365-4.368,0.019-6.725-0.727-10.783C136.774,124.447,163.03,121.119,170.811,121.64z"/> <linearGradient id="SVGID_2_znlXuwbWpSvIWXG8KbnJh" gradientUnits="userSpaceOnUse" x1="102.5608" y1="73.8386" x2="147.2086" y2="118.4864">  <stop offset="0" stop-color="rgb(158,189,238)"/>  <stop offset="1" stop-color="rgb(121,162,202)"/> </linearGradient> <path fill="url(#SVGID_2_znlXuwbWpSvIWXG8KbnJh)" d="M112.976,39.84c14.029-0.368,22.207,4.471,28.021,8.863c8.421,6.362,16.698,12.938,22.063,21.84  c11.83,19.627,11.566,41.274,9.452,62.371c-12.083,0.808-77.499-0.782-77.499-0.782L94.779,53.63c0,0,3.172-8.128,6.405-10.693  C103.913,40.771,107.244,39.99,112.976,39.84z"/> <path fill="#F2A19C" d="M83.361,48.723c6.448,2.542,9.01,4.88,16.214,9.313c3.854,2.372,7.55,1.583,10.254-2.579  c1.651-2.54,4.538-7.209,3.876-10.444c-0.805-3.938-4.431-5.071-7.75-6.996c-2.454-1.424-7.823-6.798-10.271-7.016  C91.661,30.644,82.693,44.35,83.361,48.723z"/> <linearGradient id="SVGID_3_znlXuwbWpSvIWXG8KbnJh" gradientUnits="userSpaceOnUse" x1="86.4118" y1="39.4635" x2="76.5608" y2="27.5743">  <stop offset="0" stop-color="#FFBEB6"/>  <stop offset="1" stop-color="#F8AFA9"/> </linearGradient> <path fill="url(#SVGID_3_znlXuwbWpSvIWXG8KbnJh)" d="M59.005,26.633c-4.333,14.14,10.393,24.786,22.634,24.946c7.96,0.104,13.357-5.442,16.942-13.187  c10.031-21.666-22.314-36.586-35.786-19.616c-1.638,2.063-2.99,4.272-3.58,6.865C58.653,25.973,59.328,27.423,59.005,26.633z"/> <path fill="rgb(125,129,156)" d="M67.248,9.861c6.62-3.885,14.221-5.424,21.733-1.971c20.915,9.614,10.468,31.77,10.468,31.77L58.626,26.516  C58.626,26.516,56.384,16.237,67.248,9.861z"/> <linearGradient id="SVGID_4_znlXuwbWpSvIWXG8KbnJh" gradientUnits="userSpaceOnUse" x1="87.3831" y1="37.4459" x2="77.8248" y2="25.9101">  <stop offset="0" stop-color="#FFBEB6"/>  <stop offset="1" stop-color="#F8AFA9"/> </linearGradient> <path fill="url(#SVGID_4_znlXuwbWpSvIWXG8KbnJh)" d="M78.394,34.887c1.13-3.291,5.737-6.67,9.242-5.009c4.334,2.055,3.829,7.301,2.937,10.941  c-3.347-1.868-8.375-4.396-12.111-5.366C78.744,35.545,78.125,34.76,78.394,34.887z"/> <circle fill="rgb(171,192,225)" cx="90.766" cy="39.508" r="8.496"/> <rect x="57.048" y="127.328" fill="rgb(147,176,217)" width="46.78" height="6.833"/> <polygon fill="rgb(171,192,225)" points="0,85.913 58.134,85.913 71.537,134.161 13.403,134.161 "/> <circle fill="rgb(147,176,217)" cx="34.031" cy="110.867" r="4.993"/> <linearGradient id="SVGID_5_znlXuwbWpSvIWXG8KbnJh" gradientUnits="userSpaceOnUse" x1="95.2565" y1="133.0706" x2="110.2565" y2="124.5706">  <stop offset="0" stop-color="#FFBEB6"/>  <stop offset="1" stop-color="#F8AFA9"/> </linearGradient> <path fill="url(#SVGID_5_znlXuwbWpSvIWXG8KbnJh)" d="M130.006,124.302c-1.566-3.306-3.426-6.523-5.042-9.77c-0.804-1.615-0.279-2.413-2.321-2.396  c-0.917,0.007-2.771,1.461-3.639,1.729c0.223-0.254-0.958-0.06-0.679-0.252c-4.095,1.494-7.921,2.741-11.861,4.638  c-1.886,0.908-3.82,1.623-5.718,2.437c-0.624-0.131-1.238-0.272-1.899-0.33c-2.238-0.197-3.669,0.419-5.736,1.134  c-3.739,1.293-7.559,1.376-10.714,3.841c-1.303,3.603,6.467,2.898,10.584,2.509c-1.292,2.77-2.457,5.617-3.867,8.273  c-0.733,1.379-3.046,4.537-0.553,5.751c1.807,0.879,2.022-0.597,3.09-0.826c2.167-0.466,1.615-0.369,4.21,0.126  c3.045,0.581,5.045-0.585,7.607-0.377c1.265,0.103,2.406,1.427,3.664,0.713c0.55-0.312,0.902-3.022,1.097-3.594  c0.582-1.704,0.958-3.607,1.383-5.519c1.778-0.425,3.542-0.829,5.146-1.375C120.062,129.21,124.634,125.708,130.006,124.302z"/> <g>  <path fill="rgb(125,129,156)" d="M65.718,48.128c-1.977,0-4.239-1.213-5.906-3.167c-1.228-1.439-2.013-3.116-2.211-4.722   c-0.208-1.682,0.247-3.093,1.28-3.975c0.671-0.572,1.548-0.875,2.534-0.875c1.978,0,4.24,1.213,5.907,3.167   c1.228,1.44,2.013,3.117,2.211,4.723c0.207,1.682-0.247,3.093-1.281,3.975C67.581,47.826,66.705,48.128,65.718,48.128z    M61.415,36.39c-0.756,0-1.391,0.214-1.886,0.635c-0.769,0.656-1.102,1.754-0.937,3.091c0.175,1.413,0.878,2.903,1.98,4.195   c1.481,1.737,3.453,2.816,5.145,2.816c0.757,0,1.392-0.213,1.886-0.635c0.77-0.656,1.103-1.754,0.937-3.091   c-0.174-1.413-0.877-2.903-1.979-4.196C65.079,37.469,63.108,36.39,61.415,36.39z"/> </g> <linearGradient id="SVGID_6_znlXuwbWpSvIWXG8KbnJh" gradientUnits="userSpaceOnUse" x1="113.0396" y1="86.4613" x2="174.2236" y2="116.2265">  <stop offset="0" stop-color="rgb(158,189,238)"/>  <stop offset="1" stop-color="rgb(121,162,202)"/> </linearGradient> <path fill="url(#SVGID_6_znlXuwbWpSvIWXG8KbnJh)" d="M121.803,66.379c-1.307-7.094-0.956-18.482,9.013-18.891c8.158-0.334,16.051,12.106,20.077,17.927  c9.769,14.124,16.487,28.188,20.106,44.655c-12.684,12.546-32.253,22.633-48.048,30.01c-4.773-7.483-10.473-15.522-13.23-23.953  c12.631-6.853,21.013-9.945,31.928-16.136C137.006,96.403,123.831,77.383,121.803,66.379z"/> <g>  <path fill="rgb(125,129,156)" d="M102.145,40.11c-0.04,0-0.082-0.005-0.123-0.016c-0.268-0.068-0.43-0.34-0.361-0.608   c2.12-8.318,1.263-16.534-2.353-22.542c-2.598-4.317-6.52-7.216-11.341-8.385c-0.268-0.065-0.433-0.335-0.368-0.604   c0.066-0.269,0.335-0.433,0.604-0.368c5.087,1.233,9.223,4.291,11.961,8.841c3.752,6.235,4.65,14.729,2.465,23.305   C102.572,39.959,102.368,40.11,102.145,40.11z"/> </g> <g>  <path fill="rgb(171,192,225)" d="M96.504,35.383l-2.832-0.991c0.5-1.428,1-2.754,1.479-4.026c1.491-3.958,2.779-7.375,3.215-11.726   c0.736-7.363-2.826-12.619-9.277-14.84c-10.562-3.636-19.726,4.89-19.726,4.89c-1.969,1.006-4.237,2.354-6.098,4.172   c2.96-9.614,15.724-15.168,26.672-11.941c7.919,2.334,12.292,9.237,11.414,18.017c-0.475,4.742-1.826,8.33-3.393,12.485   C97.487,32.675,96.995,33.978,96.504,35.383z"/> </g> <circle fill="rgb(195,208,226)" cx="90.766" cy="39.508" r="5.64"/> <path id="texture-2_15_znlXuwbWpSvIWXG8KbnJh" fill="#FFFFFF" d="M142.346,59.223c0.028,0.08,0.118,0.122,0.198,0.092c0.08-0.028,0.122-0.118,0.093-0.198  c-0.028-0.08-0.118-0.122-0.198-0.092l0,0C142.359,59.054,142.317,59.141,142.346,59.223L142.346,59.223z M153.194,70.785  c-0.038,0.079-0.004,0.174,0.076,0.211l0,0c0.071,0.037,0.158,0.008,0.195-0.062c0.004-0.006,0.006-0.012,0.008-0.019  c0.038-0.075,0.008-0.166-0.067-0.205C153.327,70.674,153.232,70.707,153.194,70.785L153.194,70.785L153.194,70.785z   M148.077,64.576c-0.059,0.063-0.062,0.161-0.007,0.228c0.061,0.065,0.162,0.068,0.228,0.007c0.065-0.061,0.068-0.162,0.007-0.228  C148.24,64.524,148.144,64.521,148.077,64.576z M129.141,72.799c-0.125,0.105-0.143,0.292-0.04,0.42  c0.095,0.126,0.274,0.152,0.4,0.058c0.004-0.004,0.008-0.006,0.013-0.01c0.125-0.105,0.143-0.292,0.04-0.42  C129.453,72.72,129.268,72.698,129.141,72.799L129.141,72.799z M134.711,68.284c-0.126,0.107-0.141,0.294-0.034,0.42  c0.104,0.124,0.288,0.141,0.414,0.039c0.127-0.101,0.149-0.285,0.048-0.412l0,0C135.029,68.206,134.843,68.186,134.711,68.284z   M140.296,63.766c-0.126,0.101-0.147,0.284-0.046,0.41c0.002,0.003,0.005,0.005,0.007,0.008c0.095,0.126,0.274,0.152,0.4,0.058  c0.004-0.004,0.008-0.006,0.013-0.01c0.124-0.108,0.144-0.295,0.047-0.428C140.609,63.681,140.423,63.663,140.296,63.766z   M124.965,58.04c0.051,0.155,0.217,0.238,0.372,0.187c0.155-0.051,0.238-0.217,0.187-0.372c-0.05-0.151-0.212-0.235-0.365-0.189  C125.004,57.717,124.918,57.883,124.965,58.04L124.965,58.04z M131.847,56c0.051,0.154,0.217,0.238,0.372,0.187  c0.155-0.051,0.238-0.217,0.187-0.372c-0.05-0.151-0.212-0.235-0.365-0.189C131.887,55.676,131.8,55.843,131.847,56L131.847,56z   M142.092,79.3c-0.075,0.146-0.02,0.324,0.125,0.402c0.14,0.078,0.316,0.026,0.394-0.114c0,0,0.002-0.002,0.001-0.003  c0.084-0.134,0.043-0.309-0.09-0.392c-0.006-0.004-0.013-0.008-0.02-0.012C142.355,79.109,142.177,79.16,142.092,79.3z   M145.521,72.99c-0.073,0.147-0.022,0.325,0.118,0.41c0.146,0.075,0.325,0.02,0.402-0.125c0.078-0.143,0.024-0.322-0.119-0.399  c-0.001-0.001-0.004-0.002-0.004-0.002c-0.141-0.078-0.317-0.027-0.394,0.112C145.522,72.989,145.522,72.99,145.521,72.99z   M148.944,66.69c-0.078,0.136-0.033,0.31,0.104,0.387c0.004,0.002,0.008,0.005,0.012,0.006c0.14,0.083,0.321,0.035,0.403-0.104  c0.003-0.004,0.005-0.009,0.008-0.013c0.077-0.145,0.023-0.326-0.122-0.403c-0.145-0.077-0.326-0.022-0.403,0.122  C148.946,66.689,148.945,66.69,148.944,66.69z M123.144,51.241c0.028,0.142,0.166,0.236,0.309,0.21  c0.142-0.027,0.237-0.165,0.21-0.309c-0.027-0.143-0.165-0.237-0.309-0.21l0,0C123.213,50.961,123.119,51.098,123.144,51.241z   M138.081,73.512c-0.078,0.127-0.045,0.291,0.077,0.377c0.116,0.08,0.276,0.05,0.355-0.066c0.002-0.004,0.004-0.006,0.006-0.01  c0.084-0.119,0.055-0.284-0.064-0.366c-0.001-0.001-0.003-0.001-0.004-0.003C138.33,73.367,138.168,73.396,138.081,73.512  L138.081,73.512z M141.662,68.213c-0.079,0.121-0.045,0.283,0.074,0.362c0.116,0.08,0.276,0.05,0.355-0.066  c0.002-0.004,0.004-0.006,0.006-0.01c0.084-0.119,0.055-0.284-0.063-0.368c-0.001-0.001-0.003-0.001-0.004-0.003  C141.905,68.054,141.742,68.091,141.662,68.213L141.662,68.213z M145.246,62.892c-0.084,0.119-0.055,0.284,0.063,0.368l0.004,0.003  c0.111,0.082,0.267,0.056,0.349-0.055c0.005-0.006,0.01-0.014,0.014-0.022c0.084-0.119,0.055-0.284-0.063-0.368  c-0.001-0.001-0.003-0.001-0.004-0.003C145.487,62.742,145.328,62.775,145.246,62.892L145.246,62.892z M130.844,61.476  c-0.119,0.085-0.149,0.248-0.067,0.369c0.08,0.121,0.241,0.155,0.362,0.075c0.12-0.083,0.157-0.245,0.082-0.37  C131.138,61.427,130.97,61.395,130.844,61.476L130.844,61.476z M136.192,57.943c-0.119,0.074-0.158,0.23-0.085,0.349  c0.003,0.004,0.006,0.008,0.008,0.013c0.08,0.121,0.241,0.155,0.362,0.075c0.12-0.083,0.157-0.245,0.082-0.37  C136.477,57.892,136.313,57.861,136.192,57.943L136.192,57.943z M150.952,75.516c-0.03,0.135,0.054,0.269,0.189,0.3  c0.005,0.001,0.011,0.003,0.015,0.003c0.142,0.033,0.283-0.056,0.317-0.197c0-0.003,0.001-0.007,0.002-0.009  c0.023-0.144-0.071-0.28-0.213-0.31c-0.14-0.029-0.278,0.061-0.307,0.201C150.952,75.508,150.953,75.512,150.952,75.516  L150.952,75.516z M152.227,69.234c-0.028,0.144,0.062,0.286,0.207,0.318c0.146,0.025,0.285-0.071,0.311-0.217  c0.025-0.139-0.063-0.273-0.2-0.307c-0.14-0.034-0.281,0.052-0.315,0.191C152.228,69.223,152.227,69.229,152.227,69.234  L152.227,69.234z M118.084,55.786c-0.136,0.101-0.17,0.289-0.076,0.431c0.094,0.14,0.283,0.178,0.423,0.085  c0.138-0.099,0.172-0.29,0.076-0.431C118.413,55.731,118.224,55.693,118.084,55.786L118.084,55.786z M124.213,51.643  c-0.14,0.094-0.178,0.283-0.085,0.423c0.093,0.14,0.283,0.178,0.423,0.085c0.14-0.094,0.178-0.283,0.085-0.423  C124.542,51.587,124.353,51.55,124.213,51.643L124.213,51.643z M143.95,73.123c-0.027,0.169,0.082,0.33,0.249,0.367  c0.168,0.027,0.327-0.089,0.353-0.258c0.026-0.163-0.082-0.316-0.242-0.35C144.145,72.854,143.986,72.959,143.95,73.123  L143.95,73.123z M145.349,65.862c-0.028,0.165,0.077,0.323,0.241,0.36c0.166,0.033,0.327-0.075,0.36-0.241  c0.033-0.166-0.075-0.327-0.241-0.36C145.544,65.591,145.385,65.699,145.349,65.862L145.349,65.862z M130.772,63.838  c-0.085,0.144-0.046,0.33,0.089,0.429c0.143,0.087,0.33,0.044,0.421-0.096c0.095-0.136,0.061-0.324-0.077-0.418  c0,0-0.004-0.002-0.006-0.004C131.058,63.655,130.867,63.695,130.772,63.838L130.772,63.838L130.772,63.838z M134.849,57.659  c-0.094,0.143-0.053,0.334,0.089,0.428l0.001,0.001c0.138,0.09,0.324,0.051,0.413-0.088l0,0c0.092-0.14,0.055-0.329-0.084-0.421  C135.13,57.486,134.943,57.523,134.849,57.659L134.849,57.659z M125.975,62.185c-0.094,0.138-0.058,0.327,0.082,0.422  c0.139,0.095,0.327,0.058,0.422-0.082c0.091-0.135,0.06-0.318-0.072-0.414C126.266,62.012,126.074,62.046,125.975,62.185  L125.975,62.185z M130.284,56.207c-0.097,0.139-0.064,0.332,0.075,0.43c0.136,0.093,0.322,0.063,0.423-0.066  c0.096-0.142,0.066-0.333-0.068-0.438C130.574,56.038,130.385,56.072,130.284,56.207L130.284,56.207z M141.115,65.047  c-0.035,0.166,0.069,0.33,0.234,0.368c0.162,0.037,0.324-0.064,0.361-0.226c0.044-0.158-0.048-0.322-0.206-0.367  c-0.004-0.001-0.008-0.003-0.013-0.002c-0.164-0.044-0.331,0.054-0.374,0.218C141.116,65.041,141.115,65.044,141.115,65.047  L141.115,65.047z"/> </g></g>
              </svg>